<svg width="261" height="275" viewBox="0 0 261 275" fill="none" xmlns="http://www.w3.org/2000/svg">
<path d="M164.251 52.7022L233 7.21674C238.55 3.54525 246.027 5.08997 249.667 10.6599L254.526 18.0957C258.061 23.5051 256.678 30.7425 251.397 34.4669L160.454 98.6043C159.031 99.6079 157.122 99.5756 155.734 98.5246L93.4756 51.3891C92.2879 50.49 90.699 50.3253 89.3522 50.9617L57.1782 66.1648C54.0888 67.6247 54.1339 72.0358 57.2525 73.4322L156.208 117.738C157.375 118.261 158.721 118.194 159.831 117.558L237.077 73.3095C239.743 71.782 243.065 73.7072 243.065 76.7804V108.742C243.065 110.187 242.286 111.52 241.026 112.228L153.781 161.32C152.676 161.942 151.341 162.003 150.184 161.484L3.36436 95.6968C1.92582 95.0522 1 93.6229 1 92.0465V56.7912C1 55.2143 1.92637 53.7846 3.36557 53.1403L96.872 11.2788C98.152 10.7058 99.6386 10.8449 100.79 11.6455L159.76 52.6503C161.105 53.5856 162.885 53.6061 164.251 52.7022Z" fill="black" stroke="black"/>
<path d="M155.937 179.305L6.61506 114.859C3.97445 113.72 1.03003 115.656 1.03003 118.532V156.103C1.03003 157.664 1.93771 159.082 3.35494 159.735L140.656 223.053C141.938 223.644 141.917 225.473 140.622 226.035C132.206 229.684 122.643 229.628 114.271 225.878L6.66483 177.692C4.01856 176.507 1.03003 178.443 1.03003 181.342V217.986C1.03003 219.552 1.94461 220.975 3.36996 221.625L118.109 273.964C119.323 274.518 120.734 274.429 121.869 273.729L243.274 198.825C244.455 198.096 245.173 196.808 245.173 195.42V136.311C245.173 133.242 241.861 131.317 239.195 132.834L157.719 179.207C157.173 179.517 156.513 179.553 155.937 179.305Z" fill="black" stroke="black"/>
</svg>
