<svg width="1080" height="368" viewBox="0 0 1080 368" fill="none" xmlns="http://www.w3.org/2000/svg">
<path d="M280.48 158.5C280.48 150.46 282.58 143.38 286.78 137.26C290.98 131.02 296.74 126.16 304.06 122.68C311.5 119.08 319.96 117.28 329.44 117.28C339.04 117.28 347.32 118.96 354.28 122.32C361.24 125.68 366.58 130.42 370.3 136.54C374.14 142.66 376.06 149.92 376.06 158.32H347.08C347.08 153.64 345.46 149.98 342.22 147.34C338.98 144.58 334.6 143.2 329.08 143.2C323.2 143.2 318.46 144.46 314.86 146.98C311.38 149.5 309.64 152.98 309.64 157.42C309.64 161.5 310.72 164.62 312.88 166.78C315.04 168.94 318.46 170.5 323.14 171.46L343.12 175.6C355 178 363.82 182.2 369.58 188.2C375.34 194.08 378.22 202.3 378.22 212.86C378.22 221.38 376.12 228.88 371.92 235.36C367.72 241.72 361.78 246.64 354.1 250.12C346.54 253.6 337.66 255.34 327.46 255.34C317.62 255.34 308.98 253.66 301.54 250.3C294.22 246.94 288.52 242.2 284.44 236.08C280.48 229.84 278.5 222.58 278.5 214.3H307.48C307.48 219.1 309.22 222.82 312.7 225.46C316.18 228.1 321.16 229.42 327.64 229.42C334.24 229.42 339.46 228.22 343.3 225.82C347.14 223.3 349.06 219.94 349.06 215.74C349.06 212.02 348.1 209.14 346.18 207.1C344.38 205.06 341.26 203.62 336.82 202.78L316.48 198.64C304.6 196.24 295.6 191.68 289.48 184.96C283.48 178.24 280.48 169.42 280.48 158.5ZM376.668 163H438.588V186.04H376.668V163ZM421.488 253H393.768V135.1H421.488V253ZM469.225 255.34C459.745 255.34 452.185 252.76 446.545 247.6C441.025 242.32 438.265 235.3 438.265 226.54C438.265 218.26 441.085 211.66 446.725 206.74C452.485 201.82 460.765 198.94 471.565 198.1L496.765 196.12V194.68C496.765 191.68 496.165 189.22 494.965 187.3C493.765 185.26 492.025 183.76 489.745 182.8C487.585 181.72 484.825 181.18 481.465 181.18C475.585 181.18 471.085 182.26 467.965 184.42C464.965 186.58 463.465 189.7 463.465 193.78H440.425C440.425 186.94 442.165 181 445.645 175.96C449.125 170.92 454.045 167.02 460.405 164.26C466.885 161.5 474.385 160.12 482.905 160.12C491.665 160.12 499.045 161.68 505.045 164.8C511.165 167.92 515.785 172.48 518.905 178.48C522.145 184.48 523.765 191.8 523.765 200.44V253H499.285L497.485 241.12C496.045 245.2 492.625 248.62 487.225 251.38C481.945 254.02 475.945 255.34 469.225 255.34ZM478.945 234.82C484.225 234.82 488.545 233.56 491.905 231.04C495.265 228.4 496.945 224.5 496.945 219.34V214.48L482.905 215.74C476.905 216.22 472.645 217.24 470.125 218.8C467.725 220.24 466.525 222.4 466.525 225.28C466.525 228.52 467.545 230.92 469.585 232.48C471.625 234.04 474.745 234.82 478.945 234.82ZM529.787 207.64C529.787 198.4 531.767 190.24 535.727 183.16C539.687 175.96 545.087 170.32 551.927 166.24C558.887 162.16 566.867 160.12 575.867 160.12C589.187 160.12 599.987 163.54 608.267 170.38C616.547 177.22 621.107 186.52 621.947 198.28H594.047C593.087 193.72 591.167 190.36 588.287 188.2C585.527 186.04 581.747 184.96 576.947 184.96C573.107 184.96 569.687 185.92 566.687 187.84C563.807 189.64 561.587 192.22 560.027 195.58C558.467 198.94 557.687 202.96 557.687 207.64C557.687 212.44 558.407 216.58 559.847 220.06C561.407 223.42 563.567 226 566.327 227.8C569.207 229.6 572.627 230.5 576.587 230.5C581.507 230.5 585.407 229.42 588.287 227.26C591.287 224.98 593.207 221.62 594.047 217.18H621.947C621.347 224.74 619.007 231.4 614.927 237.16C610.967 242.8 605.687 247.24 599.087 250.48C592.487 253.72 584.987 255.34 576.587 255.34C567.107 255.34 558.827 253.36 551.747 249.4C544.787 245.44 539.387 239.92 535.547 232.84C531.707 225.64 529.787 217.24 529.787 207.64ZM655.848 253H628.128V117.28H655.848V195.4L685.008 163H719.748L685.908 198.64L718.668 253H686.628L666.468 219.34L655.848 230.5V253ZM712.705 207.64C712.705 198.4 714.685 190.24 718.645 183.16C722.605 175.96 728.005 170.32 734.845 166.24C741.805 162.16 749.785 160.12 758.785 160.12C772.105 160.12 782.905 163.54 791.185 170.38C799.465 177.22 804.025 186.52 804.865 198.28H776.965C776.005 193.72 774.085 190.36 771.205 188.2C768.445 186.04 764.665 184.96 759.865 184.96C756.025 184.96 752.605 185.92 749.605 187.84C746.725 189.64 744.505 192.22 742.945 195.58C741.385 198.94 740.605 202.96 740.605 207.64C740.605 212.44 741.325 216.58 742.765 220.06C744.325 223.42 746.485 226 749.245 227.8C752.125 229.6 755.545 230.5 759.505 230.5C764.425 230.5 768.325 229.42 771.205 227.26C774.205 224.98 776.125 221.62 776.965 217.18H804.865C804.265 224.74 801.925 231.4 797.845 237.16C793.885 242.8 788.605 247.24 782.005 250.48C775.405 253.72 767.905 255.34 759.505 255.34C750.025 255.34 741.745 253.36 734.665 249.4C727.705 245.44 722.305 239.92 718.465 232.84C714.625 225.64 712.705 217.24 712.705 207.64ZM856.405 255.34C847.405 255.34 839.365 253.3 832.285 249.22C825.325 245.14 819.805 239.56 815.725 232.48C811.765 225.28 809.785 217.06 809.785 207.82C809.785 198.46 811.705 190.24 815.545 183.16C819.505 175.96 824.965 170.32 831.925 166.24C838.885 162.16 846.865 160.12 855.865 160.12C865.345 160.12 873.505 162.1 880.345 166.06C887.185 169.9 892.465 175.42 896.185 182.62C899.905 189.7 901.765 198.16 901.765 208V215.02L824.365 215.38L824.725 198.28H874.225C874.225 193.48 872.605 189.7 869.365 186.94C866.125 184.06 861.685 182.62 856.045 182.62C851.365 182.62 847.525 183.52 844.525 185.32C841.645 187.12 839.485 189.94 838.045 193.78C836.605 197.5 835.885 202.3 835.885 208.18C835.885 216.58 837.565 222.82 840.925 226.9C844.405 230.86 849.745 232.84 856.945 232.84C862.225 232.84 866.605 231.94 870.085 230.14C873.565 228.34 875.785 225.82 876.745 222.58H902.125C900.565 232.54 895.645 240.52 887.365 246.52C879.085 252.4 868.765 255.34 856.405 255.34ZM902.701 224.56H928.981C929.221 227.68 930.481 230.14 932.761 231.94C935.041 233.74 938.281 234.64 942.481 234.64C946.801 234.64 949.981 233.92 952.021 232.48C954.061 231.04 955.081 229.18 955.081 226.9C955.081 225.58 954.541 224.26 953.461 222.94C952.501 221.62 950.341 220.6 946.981 219.88L930.421 216.28C922.141 214.48 915.961 211.6 911.881 207.64C907.801 203.56 905.761 197.56 905.761 189.64C905.761 183.4 907.381 178.12 910.621 173.8C913.981 169.36 918.481 166 924.121 163.72C929.761 161.32 936.181 160.12 943.381 160.12C950.341 160.12 956.461 161.38 961.741 163.9C967.141 166.42 971.341 169.96 974.341 174.52C977.341 179.08 978.841 184.42 978.841 190.54H952.561C952.561 187.42 951.661 184.96 949.861 183.16C948.061 181.24 945.481 180.28 942.121 180.28C939.001 180.28 936.481 181.06 934.561 182.62C932.761 184.06 931.861 185.98 931.861 188.38C931.861 192.22 935.101 194.86 941.581 196.3L958.321 199.9C965.761 201.46 971.401 204.16 975.241 208C979.201 211.72 981.181 217.18 981.181 224.38C981.181 230.74 979.501 236.26 976.141 240.94C972.781 245.62 968.101 249.22 962.101 251.74C956.101 254.14 949.201 255.34 941.401 255.34C929.521 255.34 920.101 252.52 913.141 246.88C906.181 241.12 902.701 233.68 902.701 224.56ZM980.185 224.56H1006.46C1006.7 227.68 1007.96 230.14 1010.24 231.94C1012.52 233.74 1015.76 234.64 1019.96 234.64C1024.28 234.64 1027.46 233.92 1029.5 232.48C1031.54 231.04 1032.56 229.18 1032.56 226.9C1032.56 225.58 1032.02 224.26 1030.94 222.94C1029.98 221.62 1027.82 220.6 1024.46 219.88L1007.9 216.28C999.625 214.48 993.445 211.6 989.365 207.64C985.285 203.56 983.245 197.56 983.245 189.64C983.245 183.4 984.865 178.12 988.105 173.8C991.465 169.36 995.965 166 1001.6 163.72C1007.24 161.32 1013.66 160.12 1020.86 160.12C1027.82 160.12 1033.94 161.38 1039.22 163.9C1044.62 166.42 1048.82 169.96 1051.82 174.52C1054.82 179.08 1056.32 184.42 1056.32 190.54H1030.04C1030.04 187.42 1029.14 184.96 1027.34 183.16C1025.54 181.24 1022.96 180.28 1019.6 180.28C1016.48 180.28 1013.96 181.06 1012.04 182.62C1010.24 184.06 1009.34 185.98 1009.34 188.38C1009.34 192.22 1012.58 194.86 1019.06 196.3L1035.8 199.9C1043.24 201.46 1048.88 204.16 1052.72 208C1056.68 211.72 1058.66 217.18 1058.66 224.38C1058.66 230.74 1056.98 236.26 1053.62 240.94C1050.26 245.62 1045.58 249.22 1039.58 251.74C1033.58 254.14 1026.68 255.34 1018.88 255.34C1007 255.34 997.585 252.52 990.625 246.88C983.665 241.12 980.185 233.68 980.185 224.56Z" fill="white"/>
<path d="M164.251 109.702L233 64.2167C238.55 60.5452 246.027 62.09 249.667 67.6599L254.526 75.0957C258.061 80.5051 256.678 87.7425 251.397 91.4669L160.454 155.604C159.031 156.608 157.122 156.576 155.734 155.525L93.4756 108.389C92.2879 107.49 90.699 107.325 89.3522 107.962L57.1782 123.165C54.0888 124.625 54.1339 129.036 57.2525 130.432L156.208 174.738C157.375 175.261 158.721 175.194 159.831 174.558L237.077 130.31C239.743 128.782 243.065 130.707 243.065 133.78V165.742C243.065 167.187 242.286 168.52 241.026 169.228L153.781 218.32C152.676 218.942 151.341 219.003 150.184 218.484L3.36436 152.697C1.92582 152.052 1 150.623 1 149.047V113.791C1 112.214 1.92637 110.785 3.36557 110.14L96.872 68.2788C98.152 67.7058 99.6386 67.8449 100.79 68.6455L159.76 109.65C161.105 110.586 162.885 110.606 164.251 109.702Z" fill="white" stroke="white"/>
<path d="M155.937 236.305L6.61506 171.859C3.97445 170.72 1.03003 172.656 1.03003 175.532V213.103C1.03003 214.664 1.93771 216.082 3.35494 216.735L140.656 280.053C141.938 280.644 141.917 282.473 140.622 283.035C132.206 286.684 122.643 286.628 114.271 282.878L6.66483 234.692C4.01856 233.507 1.03003 235.443 1.03003 238.342V274.986C1.03003 276.552 1.94461 277.975 3.36996 278.625L118.109 330.964C119.323 331.518 120.734 331.429 121.869 330.729L243.274 255.825C244.455 255.096 245.173 253.808 245.173 252.42V193.311C245.173 190.242 241.861 188.317 239.195 189.834L157.719 236.207C157.173 236.517 156.513 236.553 155.937 236.305Z" fill="white" stroke="white"/>
</svg>
